<svg width="48" height="48" viewBox="0 0 48 48" fill="none" xmlns="http://www.w3.org/2000/svg">
    <path fill-rule="evenodd" clip-rule="evenodd" d="M18.9724 40.4627L16.3026 32.2303L27.9859 32.6976L36.2153 42.2018L18.9724 40.4627ZM15.6046 37.8163L13.7601 32.1285L8.1436 31.9038L15.6046 37.8163ZM5.68457 29.4048L12.9714 29.6963L11.2946 24.5258V11.6225L5.68457 29.4048ZM13.6805 8.42738L34.2481 5.72168L34.3012 5.81619L34.0894 5.75988L27.639 30.2831L15.5139 29.7981L13.6805 24.1446V8.42738ZM35.8278 8.53337L32.6535 20.6013L42.1645 19.8114L35.8278 8.53337ZM41.9851 22.2332L32.0063 23.062L29.8626 31.2118L38.3434 41.0061L41.9851 22.2332Z" fill="#181F2C"/>
</svg>
